<svg xmlns="http://www.w3.org/2000/svg" viewBox="0 0 61.93 20.82"><defs><style>.cls-1{fill:#08aacd;}.cls-2{fill:#2b3979;}.cls-3{fill:#e62b28;}.cls-4{font-size:8px;fill:#3c3c3b;font-family:Roboto-Regular, Roboto;}.cls-5{letter-spacing:-0.01em;}</style></defs><title>Artboard 2</title><g id="Layer_2" data-name="Layer 2"><path class="cls-1" d="M60.2,11.53c1.09-.59,1.28-1.35,0-2.09L51.39,4.62c-1.07-.61-2-.1-2,1.12v9.5c0,1.56.82,1.71,1.9,1.13l1-.57a.87.87,0,0,0,.44-.88.63.63,0,0,0-.86-.43c-.61.33-1,0-1-.68V7c0-.67.49-1,1.08-.62L58.11,9.9c.6.34.6.88,0,1.21l-3.76,2V10.76a.65.65,0,0,0-1.29,0V14a.9.9,0,0,0,1.25.69Z"/><circle class="cls-1" cx="53.73" cy="9.03" r="0.68"/><path class="cls-2" d="M18.16,8.37A2.63,2.63,0,0,0,15.61,7,2.59,2.59,0,0,0,13.4,8.09V7.2H11.57v9.29H13.4V11.06c0-1.5.56-2.37,1.79-2.37S17,9.36,17,11.23v5.26H18.8V11.06c0-1.5.57-2.37,1.79-2.37s1.79.67,1.79,2.54v5.26H24.2V11.16C24.2,8.42,23.17,7,21,7a3.25,3.25,0,0,0-2.85,1.36"/><path class="cls-2" d="M31.28,5.78V8.07A3.2,3.2,0,0,0,29,7c-1.92,0-3.67,1.5-3.67,4.68,0,3.54,1.59,5,3.58,5a3.49,3.49,0,0,0,2.41-1.08v.16c0,1.93-.57,2.64-3.19,2.76l.62,1.39c3.37-.11,4.4-1.47,4.4-4.31V8Zm0,8A2.86,2.86,0,0,1,29.21,15c-1.35,0-2.1-1-2.1-3.36,0-2,.71-3,2-3a3,3,0,0,1,2.19,1.22Z"/><polygon class="cls-2" points="34.46 8.77 34.46 16.49 36.28 16.49 36.28 7.84 34.46 8.77"/><path class="cls-2" d="M43.64,3.85V8.07A3.26,3.26,0,0,0,41.31,7c-1.93,0-3.67,1.5-3.67,4.68,0,3.54,1.58,5,3.58,5a3.53,3.53,0,0,0,2.42-1.08v.89h1.81V2.91Zm0,10A2.86,2.86,0,0,1,41.56,15c-1.35,0-2.09-1-2.09-3.36,0-2,.7-3,2-3a3,3,0,0,1,2.18,1.22Z"/><polygon class="cls-3" points="34.4 5.28 31.68 4.03 34.35 6.88 45.45 1.04 34.4 5.28"/><text class="cls-4" transform="translate(1.08 16.49)"><tspan class="cls-5">b</tspan><tspan x="4.45" y="0">y</tspan></text></g></svg>